<svg aria-hidden="true" style="position: absolute; width: 0; height: 0; overflow: hidden;" version="1.1" xmlns="http://www.w3.org/2000/svg" xmlns:xlink="http://www.w3.org/1999/xlink">
<defs>
<symbol id="icon-checkbox" viewBox="0 0 40 32">
<path d="M33.784 1.020c0.659-0.637 1.558-1.030 2.548-1.030 2.007 0 3.637 1.611 3.668 3.611l0 0.003c0.001 0.028 0.001 0.061 0.001 0.095 0 0.965-0.368 1.844-0.972 2.504l0.003-0.003-19.576 24.616c-0.674 0.728-1.635 1.182-2.702 1.182-0.495 0-0.967-0.098-1.398-0.275l0.024 0.009c-0.477-0.197-0.884-0.473-1.224-0.816l-0-0-12.984-13.052c-0.724-0.677-1.175-1.638-1.175-2.705 0-0.501 0.1-0.98 0.28-1.416l-0.009 0.025c0.564-1.367 1.887-2.312 3.43-2.312 0.018 0 0.035 0 0.053 0l-0.003-0c1.038 0.019 1.967 0.467 2.622 1.174l0.002 0.002 10.276 10.328 17.040-21.832c0.032-0.039 0.065-0.074 0.1-0.108l-0.004-0z"></path>
</symbol>
<symbol id="icon-arrow" viewBox="0 0 32 32">
<path d="M32 4.741l-4.741-4.741v23.703l-23.703-23.703-3.557 3.557 23.703 23.703h-23.703l4.741 4.741h27.259v-27.259z"></path>
</symbol>
<symbol id="icon-basket" viewBox="0 0 32 32">
<path stroke-linejoin="miter" stroke-linecap="butt" stroke-miterlimit="4" stroke-width="2" d="M5.114 31l-3.934-23.6h29.64l-3.934 23.6h-21.772z"></path>
<path d="M6.534 7.466c0-5.228 4.238-9.466 9.466-9.466s9.466 4.238 9.466 9.466v0h-4c0-3.019-2.447-5.466-5.466-5.466s-5.466 2.447-5.466 5.466h-4zM23.466 12.8v0zM6.534 12.8v-5.334c0-5.228 4.238-9.466 9.466-9.466v0 4c-3.019 0-5.466 2.447-5.466 5.466v0 5.334h-4zM16-2c5.228 0 9.466 4.238 9.466 9.466v0 5.334h-4v-5.334c0-3.019-2.447-5.466-5.466-5.466v-4z"></path>
</symbol>
<symbol id="icon-close" viewBox="0 0 32 32">
<path stroke-linejoin="round" stroke-linecap="round" stroke-miterlimit="4" stroke-width="2.6667" d="M24 8l-16 16M8 8l16 16"></path>
</symbol>
<symbol id="icon-facebook" viewBox="0 0 12 32">
<path d="M10.789 1.615h1.28v4.8h-1.6c-0.64 0-1.28 0-1.6 0.32s-0.32 0.64-0.32 1.387v1.707h3.52v4.053h-3.52v17.6h-5.44v-17.707h-2.88v-4.053h2.88v-1.387c0-2.347 0.32-4.053 0.96-4.8 0.96-1.387 2.88-2.027 5.76-2.027 0.32 0.107 0.64 0.107 0.96 0.107z"></path>
</symbol>
<symbol id="icon-insta" viewBox="0 0 32 32">
<path d="M28.718 10.757c-0.015-1.134-0.233-2.213-0.617-3.208l0.021 0.063c-0.682-1.722-2.021-3.059-3.7-3.722l-0.044-0.015c-0.921-0.356-1.985-0.573-3.097-0.596l-0.010-0c-1.367-0.061-1.801-0.078-5.271-0.078-3.472 0-3.917 0-5.274 0.078-1.063 0.023-2.112 0.223-3.106 0.597-1.723 0.678-3.062 2.015-3.727 3.693l-0.015 0.044c-0.357 0.919-0.574 1.981-0.595 3.091l-0 0.009c-0.062 1.367-0.080 1.8-0.080 5.265 0 3.466 0 3.909 0.080 5.265 0.021 1.063 0.222 2.11 0.594 3.104 0.682 1.721 2.022 3.058 3.701 3.721l0.044 0.015c0.917 0.37 1.979 0.601 3.091 0.638l0.016 0c1.369 0.061 1.803 0.080 5.274 0.080 3.472 0 3.917 0 5.274-0.080 1.122-0.023 2.187-0.239 3.172-0.616l-0.064 0.022c1.722-0.68 3.061-2.016 3.727-3.693l0.016-0.044c0.374-0.994 0.575-2.041 0.595-3.104 0.062-1.366 0.080-1.799 0.080-5.266-0.002-3.465-0.002-3.905-0.082-5.263zM15.989 22.531c-0.002 0-0.004 0-0.007 0-3.624 0-6.563-2.937-6.565-6.561v-0c0.002-3.624 2.94-6.561 6.565-6.561 0.002 0 0.005 0 0.007 0h-0c3.629 0 6.571 2.937 6.571 6.561-0.004 3.624-2.942 6.56-6.567 6.56-0.002 0-0.003 0-0.005 0h0zM22.823 10.696c-0.845 0-1.53-0.685-1.53-1.53s0.685-1.53 1.53-1.53v0c0.012-0 0.027-0.001 0.042-0.001 0.845 0 1.53 0.685 1.53 1.53s-0.685 1.53-1.53 1.53c-0.015 0-0.029-0-0.044-0.001l0.002 0z"></path>
<path d="M15.992 19.976c2.211 0 4.004-1.793 4.004-4.004s-1.793-4.004-4.004-4.004v0c-2.211 0-4.004 1.793-4.004 4.004s1.793 4.004 4.004 4.004v0z"></path>
</symbol>

<symbol id="icon-openmob" viewBox="0 0 46 32">
<path d="M0 2.274c0-1.257 1.019-2.274 2.274-2.274h18.309c1.256 0 2.274 1.018 2.274 2.274s-1.018 2.274-2.274 2.274v0h-18.309c-1.256 0-2.274-1.018-2.274-2.274v0zM0 16c0-1.257 1.019-2.274 2.274-2.274h41.166c1.256 0 2.274 1.018 2.274 2.274s-1.018 2.274-2.274 2.274h-41.166c-1.256 0-2.274-1.018-2.274-2.274v0zM2.274 27.451c-1.256 0-2.274 1.018-2.274 2.274s1.018 2.274 2.274 2.274h27.451c1.256 0 2.274-1.018 2.274-2.274s-1.018-2.274-2.274-2.274h-27.451z"></path>
</symbol>
<symbol id="icon-shoppcart" viewBox="0 0 32 32">
<path stroke-linejoin="round" stroke-linecap="round" stroke-miterlimit="4" stroke-width="3.2" d="M12 29.333c0.736 0 1.333-0.597 1.333-1.333s-0.597-1.333-1.333-1.333v0c-0.736 0-1.333 0.597-1.333 1.333s0.597 1.333 1.333 1.333v0zM26.667 29.333c0.736 0 1.333-0.597 1.333-1.333s-0.597-1.333-1.333-1.333v0c-0.736 0-1.333 0.597-1.333 1.333s0.597 1.333 1.333 1.333v0z"></path>
<path stroke-linejoin="round" stroke-linecap="round" stroke-miterlimit="4" stroke-width="2.56" d="M1.333 1.333h5.334l3.573 17.854c0.252 1.232 1.327 2.146 2.616 2.146 0.018 0 0.036-0 0.054-0.001l-0.003 0h12.96c0.015 0 0.033 0 0.051 0 1.288 0 2.363-0.914 2.612-2.129l0.003-0.017 2.134-11.187h-22.667"></path>
</symbol>
<symbol id="icon-youtube" viewBox="0 0 46 32">
<path d="M35.929 0.444c-2.116-0.124-6.471-0.249-13.067-0.249h-0.871c-6.347 0-10.578 0.124-12.693 0.373-2.862 0.249-4.853 0.996-5.973 1.991-0.996 0.871-1.742 2.489-1.991 4.604-0.124 1.369-0.249 4.231-0.249 8.587v0.622c0 4.107 0.124 6.969 0.373 8.338 0.373 1.991 0.996 3.484 2.24 4.356 1.244 0.996 3.36 1.618 6.347 1.867 2.116 0.124 6.471 0.249 13.067 0.249h0.871c6.347 0 10.578-0.124 12.693-0.373 2.862-0.249 4.853-0.996 5.973-1.991 0.996-0.871 1.742-2.489 1.991-4.604 0.124-1.369 0.249-4.231 0.249-8.587v-0.622c0-4.107-0.124-6.969-0.373-8.338-0.373-1.991-0.996-3.484-2.24-4.356-1.244-0.996-3.36-1.618-6.347-1.867zM31.076 15.751l-13.689 8.213v-16.427l13.689 8.213z"></path>
</symbol>
<symbol id="icon-shadow" viewBox="0 0 85 32">
<path d="M42.723 22.468c18.331 0 33.192-2.896 33.192-6.468s-14.86-6.468-33.191-6.468c-18.331 0-33.191 2.896-33.191 6.468s14.86 6.468 33.191 6.468z"></path>
</symbol>
<symbol id="icon-bxs_coffee-bean" viewBox="0 0 25 24">
<path fill="#603813" style="fill: var(--color1, #603813)" d="M6.5 18c1.438-0.213 2.752-0.937 3.701-2.038s1.471-2.508 1.469-3.961c0.007-1.825 0.669-3.587 1.866-4.965s2.848-2.281 4.654-2.545l2.59-0.37c-0.070-0.080-0.13-0.16-0.21-0.24-3.26-3.26-9.52-2.28-14 2.18-3.79 3.84-5.070 8.94-3.31 12.4l3.24-0.46z"></path>
<path fill="#603813" style="fill: var(--color1, #603813)" d="M13.23 12c-0.006 1.825-0.667 3.587-1.861 4.966s-2.844 2.286-4.649 2.553l-2.46 0.35 0.15 0.17c3.26 3.26 9.52 2.29 14-2.17 3.77-3.76 5.090-8.87 3.34-12.28l-3.34 0.48c-1.429 0.208-2.737 0.919-3.687 2.007s-1.48 2.479-1.493 3.923z"></path>
</symbol>
<symbol id="icon-bxs_coffee-bean-footer" viewBox="0 0 25 24">
<path fill="#FEF4EA" style="fill: var(--color1, #FEF4EA)" d="M6.5 18c1.438-0.213 2.752-0.937 3.701-2.038s1.471-2.508 1.469-3.961c0.007-1.825 0.669-3.587 1.866-4.965s2.848-2.281 4.654-2.545l2.59-0.37c-0.070-0.080-0.13-0.16-0.21-0.24-3.26-3.26-9.52-2.28-14 2.18-3.79 3.84-5.070 8.94-3.31 12.4l3.24-0.46z"></path>
<path fill="#FEF4EA" style="fill: var(--color1, #FEF4EA)" d="M13.23 12c-0.006 1.825-0.667 3.587-1.861 4.966s-2.844 2.286-4.649 2.553l-2.46 0.35 0.15 0.17c3.26 3.26 9.52 2.29 14-2.17 3.77-3.76 5.090-8.87 3.34-12.28l-3.34 0.48c-1.429 0.208-2.737 0.919-3.687 2.007s-1.48 2.479-1.493 3.923z"></path>
</symbol>
</defs>
</svg>
